CD_DA
CD_TEXT { LANGUAGE_MAP { 0:EN }
    LANGUAGE 0 {
        TITLE "Aqualung [gold disc]"
        PERFORMER "Jethro Tull"
        DISC_ID "890A4C0B"
}}

//Track 1
TRACK AUDIO
    CD_TEXT { LANGUAGE 0 {
        TITLE "Aqualung"
        PERFORMER "Jethro Tull"
    }}
    AUDIOFILE "Jethro Tull 01 Aqualung.wav" 00:00:00 06:36:15

//Track 2
TRACK AUDIO
    CD_TEXT { LANGUAGE 0 {
        TITLE "Cross-Eyed Mary"
        PERFORMER "Jethro Tull"
    }}
    AUDIOFILE "Jethro Tull 01 Aqualung.wav" 06:36:15
    START
    AUDIOFILE "Jethro Tull 02 Cross-Eyed Mary.wav" 00:00:00 04:09:57

//Track 3
TRACK AUDIO
    CD_TEXT { LANGUAGE 0 {
        TITLE "Cheap Day Return"
        PERFORMER "Jethro Tull"
    }}
    AUDIOFILE "Jethro Tull 02 Cross-Eyed Mary.wav" 04:09:57
    START
    AUDIOFILE "Jethro Tull 03 Cheap Day Return.wav" 00:00:00 01:23:25

//Track 4
TRACK AUDIO
    CD_TEXT { LANGUAGE 0 {
        TITLE "Mother Goose"
        PERFORMER "Jethro Tull"
    }}
    AUDIOFILE "Jethro Tull 03 Cheap Day Return.wav" 01:23:25
    START
    AUDIOFILE "Jethro Tull 04 Mother Goose.wav" 00:00:00 03:54:35

//Track 5
TRACK AUDIO
    CD_TEXT { LANGUAGE 0 {
        TITLE "Wond'ring Aloud"
        PERFORMER "Jethro Tull"
    }}
    AUDIOFILE "Jethro Tull 04 Mother Goose.wav" 03:54:35
    START
    AUDIOFILE "Jethro Tull 05 Wond'ring Aloud.wav" 00:00:00 01:55:65

//Track 6
TRACK AUDIO
    CD_TEXT { LANGUAGE 0 {
        TITLE "Up To Me"
        PERFORMER "Jethro Tull"
    }}
    AUDIOFILE "Jethro Tull 05 Wond'ring Aloud.wav" 01:55:65
    START
    AUDIOFILE "Jethro Tull 06 Up To Me.wav" 00:00:00 03:21:28

//Track 7
TRACK AUDIO
    CD_TEXT { LANGUAGE 0 {
        TITLE "My God"
        PERFORMER "Jethro Tull"
    }}
    AUDIOFILE "Jethro Tull 06 Up To Me.wav" 03:21:28
    START
    AUDIOFILE "Jethro Tull 07 My God.wav" 00:00:00 07:12:42

//Track 8
TRACK AUDIO
    CD_TEXT { LANGUAGE 0 {
        TITLE "Hymn 43"
        PERFORMER "Jethro Tull"
    }}
    AUDIOFILE "Jethro Tull 07 My God.wav" 07:12:42
    START
    AUDIOFILE "Jethro Tull 08 Hymn 43.wav" 00:00:00 03:19:38

//Track 9
TRACK AUDIO
    CD_TEXT { LANGUAGE 0 {
        TITLE "Slipstream"
        PERFORMER "Jethro Tull"
    }}
    AUDIOFILE "Jethro Tull 08 Hymn 43.wav" 03:19:38
    START
    AUDIOFILE "Jethro Tull 09 Slipstream.wav" 00:00:00 01:13:67

//Track 10
TRACK AUDIO
    CD_TEXT { LANGUAGE 0 {
        TITLE "Locomotive Breath"
        PERFORMER "Jethro Tull"
    }}
    AUDIOFILE "Jethro Tull 09 Slipstream.wav" 01:13:67
    START
    AUDIOFILE "Jethro Tull 10 Locomotive Breath.wav" 00:00:00 04:24:43

//Track 11
TRACK AUDIO
    CD_TEXT { LANGUAGE 0 {
        TITLE "Wind Up"
        PERFORMER "Jethro Tull"
    }}
    AUDIOFILE "Jethro Tull 10 Locomotive Breath.wav" 04:24:43
    START
    AUDIOFILE "Jethro Tull 11 Wind Up.wav" 00:00:00